<mxfile host="app.diagrams.net" agent="Mozilla/5.0 (Windows NT 10.0; Win64; x64) AppleWebKit/537.36 (KHTML, like Gecko) Chrome/128.0.0.0 Safari/537.36" version="24.7.7">
  <diagram name="페이지-1" id="EHgfh_z8XSHx1F4_Pof_">
    <mxGraphModel dx="2074" dy="1140" grid="1" gridSize="10" guides="1" tooltips="1" connect="1" arrows="1" fold="1" page="1" pageScale="1" pageWidth="827" pageHeight="1169" background="#FFFFFF" math="0" shadow="1">
      <root>
        <mxCell id="0" />
        <mxCell id="1" parent="0" />
        <mxCell id="FQV0Odccfyke2C4MqBwn-14" style="edgeStyle=orthogonalEdgeStyle;rounded=0;orthogonalLoop=1;jettySize=auto;html=1;exitX=1;exitY=0.5;exitDx=0;exitDy=0;entryX=0;entryY=0.5;entryDx=0;entryDy=0;" edge="1" parent="1" source="FQV0Odccfyke2C4MqBwn-20" target="FQV0Odccfyke2C4MqBwn-8">
          <mxGeometry relative="1" as="geometry" />
        </mxCell>
        <mxCell id="FQV0Odccfyke2C4MqBwn-15" style="edgeStyle=orthogonalEdgeStyle;rounded=0;orthogonalLoop=1;jettySize=auto;html=1;exitX=1;exitY=0.5;exitDx=0;exitDy=0;entryX=0;entryY=0.5;entryDx=0;entryDy=0;" edge="1" parent="1" source="FQV0Odccfyke2C4MqBwn-1" target="FQV0Odccfyke2C4MqBwn-4">
          <mxGeometry relative="1" as="geometry" />
        </mxCell>
        <mxCell id="FQV0Odccfyke2C4MqBwn-16" style="edgeStyle=orthogonalEdgeStyle;rounded=0;orthogonalLoop=1;jettySize=auto;html=1;exitX=1;exitY=0.5;exitDx=0;exitDy=0;entryX=0;entryY=0.5;entryDx=0;entryDy=0;" edge="1" parent="1" source="FQV0Odccfyke2C4MqBwn-1" target="FQV0Odccfyke2C4MqBwn-6">
          <mxGeometry relative="1" as="geometry" />
        </mxCell>
        <mxCell id="FQV0Odccfyke2C4MqBwn-17" style="edgeStyle=orthogonalEdgeStyle;rounded=0;orthogonalLoop=1;jettySize=auto;html=1;exitX=1;exitY=0.5;exitDx=0;exitDy=0;entryX=0;entryY=0.5;entryDx=0;entryDy=0;" edge="1" parent="1" source="FQV0Odccfyke2C4MqBwn-1" target="FQV0Odccfyke2C4MqBwn-10">
          <mxGeometry relative="1" as="geometry" />
        </mxCell>
        <mxCell id="FQV0Odccfyke2C4MqBwn-1" value="&lt;font style=&quot;font-size: 14px;&quot;&gt;main01&lt;/font&gt;" style="swimlane;whiteSpace=wrap;html=1;startSize=30;" vertex="1" parent="1">
          <mxGeometry x="10" y="320" width="120" height="120" as="geometry">
            <mxRectangle x="310" y="120" width="140" height="30" as="alternateBounds" />
          </mxGeometry>
        </mxCell>
        <mxCell id="FQV0Odccfyke2C4MqBwn-3" value="&lt;font style=&quot;font-size: 15px;&quot;&gt;메인화&lt;/font&gt;&lt;font style=&quot;font-size: 15px;&quot;&gt;면&lt;/font&gt;" style="text;html=1;align=center;verticalAlign=middle;resizable=0;points=[];autosize=1;strokeColor=none;fillColor=none;" vertex="1" parent="FQV0Odccfyke2C4MqBwn-1">
          <mxGeometry x="20" y="60" width="80" height="30" as="geometry" />
        </mxCell>
        <mxCell id="FQV0Odccfyke2C4MqBwn-32" style="edgeStyle=orthogonalEdgeStyle;rounded=0;orthogonalLoop=1;jettySize=auto;html=1;exitX=1;exitY=0.5;exitDx=0;exitDy=0;entryX=0;entryY=0.5;entryDx=0;entryDy=0;" edge="1" parent="1" source="FQV0Odccfyke2C4MqBwn-4" target="FQV0Odccfyke2C4MqBwn-30">
          <mxGeometry relative="1" as="geometry" />
        </mxCell>
        <mxCell id="FQV0Odccfyke2C4MqBwn-40" style="edgeStyle=orthogonalEdgeStyle;rounded=0;orthogonalLoop=1;jettySize=auto;html=1;exitX=1;exitY=0.5;exitDx=0;exitDy=0;entryX=0;entryY=0.5;entryDx=0;entryDy=0;" edge="1" parent="1" source="FQV0Odccfyke2C4MqBwn-4" target="FQV0Odccfyke2C4MqBwn-29">
          <mxGeometry relative="1" as="geometry" />
        </mxCell>
        <mxCell id="FQV0Odccfyke2C4MqBwn-4" value="myPage02" style="swimlane;whiteSpace=wrap;html=1;" vertex="1" parent="1">
          <mxGeometry x="230" y="170" width="120" height="120" as="geometry" />
        </mxCell>
        <mxCell id="FQV0Odccfyke2C4MqBwn-5" value="취소/반품내역" style="text;html=1;align=center;verticalAlign=middle;resizable=0;points=[];autosize=1;strokeColor=none;fillColor=none;rotation=0;" vertex="1" parent="FQV0Odccfyke2C4MqBwn-4">
          <mxGeometry x="10" y="58" width="100" height="30" as="geometry" />
        </mxCell>
        <mxCell id="FQV0Odccfyke2C4MqBwn-33" style="edgeStyle=orthogonalEdgeStyle;rounded=0;orthogonalLoop=1;jettySize=auto;html=1;exitX=1;exitY=0.5;exitDx=0;exitDy=0;entryX=0;entryY=0.5;entryDx=0;entryDy=0;" edge="1" parent="1" source="FQV0Odccfyke2C4MqBwn-6" target="FQV0Odccfyke2C4MqBwn-30">
          <mxGeometry relative="1" as="geometry" />
        </mxCell>
        <mxCell id="FQV0Odccfyke2C4MqBwn-41" style="edgeStyle=orthogonalEdgeStyle;rounded=0;orthogonalLoop=1;jettySize=auto;html=1;exitX=1;exitY=0.5;exitDx=0;exitDy=0;entryX=0;entryY=0.5;entryDx=0;entryDy=0;" edge="1" parent="1" source="FQV0Odccfyke2C4MqBwn-6" target="FQV0Odccfyke2C4MqBwn-27">
          <mxGeometry relative="1" as="geometry" />
        </mxCell>
        <mxCell id="FQV0Odccfyke2C4MqBwn-6" value="myPage01" style="swimlane;whiteSpace=wrap;html=1;" vertex="1" parent="1">
          <mxGeometry x="230" y="10" width="120" height="120" as="geometry" />
        </mxCell>
        <mxCell id="FQV0Odccfyke2C4MqBwn-7" value="구매목록" style="text;html=1;align=center;verticalAlign=middle;resizable=0;points=[];autosize=1;strokeColor=none;fillColor=none;rotation=0;" vertex="1" parent="FQV0Odccfyke2C4MqBwn-6">
          <mxGeometry x="25" y="58" width="70" height="30" as="geometry" />
        </mxCell>
        <mxCell id="FQV0Odccfyke2C4MqBwn-31" style="edgeStyle=orthogonalEdgeStyle;rounded=0;orthogonalLoop=1;jettySize=auto;html=1;exitX=1;exitY=0.5;exitDx=0;exitDy=0;entryX=0;entryY=0.5;entryDx=0;entryDy=0;" edge="1" parent="1" source="FQV0Odccfyke2C4MqBwn-8" target="FQV0Odccfyke2C4MqBwn-30">
          <mxGeometry relative="1" as="geometry" />
        </mxCell>
        <mxCell id="FQV0Odccfyke2C4MqBwn-44" style="edgeStyle=orthogonalEdgeStyle;rounded=0;orthogonalLoop=1;jettySize=auto;html=1;exitX=1;exitY=0.25;exitDx=0;exitDy=0;entryX=0;entryY=0.5;entryDx=0;entryDy=0;" edge="1" parent="1" source="FQV0Odccfyke2C4MqBwn-8" target="FQV0Odccfyke2C4MqBwn-24">
          <mxGeometry relative="1" as="geometry" />
        </mxCell>
        <mxCell id="FQV0Odccfyke2C4MqBwn-45" style="edgeStyle=orthogonalEdgeStyle;rounded=0;orthogonalLoop=1;jettySize=auto;html=1;exitX=1;exitY=0.75;exitDx=0;exitDy=0;entryX=0;entryY=0.5;entryDx=0;entryDy=0;" edge="1" parent="1" source="FQV0Odccfyke2C4MqBwn-8" target="FQV0Odccfyke2C4MqBwn-25">
          <mxGeometry relative="1" as="geometry" />
        </mxCell>
        <mxCell id="FQV0Odccfyke2C4MqBwn-8" value="myPage03" style="swimlane;whiteSpace=wrap;html=1;" vertex="1" parent="1">
          <mxGeometry x="230" y="320" width="120" height="120" as="geometry" />
        </mxCell>
        <mxCell id="FQV0Odccfyke2C4MqBwn-9" value="회원정보수정" style="text;html=1;align=center;verticalAlign=middle;resizable=0;points=[];autosize=1;strokeColor=none;fillColor=none;rotation=0;" vertex="1" parent="FQV0Odccfyke2C4MqBwn-8">
          <mxGeometry x="10" y="58" width="100" height="30" as="geometry" />
        </mxCell>
        <mxCell id="FQV0Odccfyke2C4MqBwn-34" style="edgeStyle=orthogonalEdgeStyle;rounded=0;orthogonalLoop=1;jettySize=auto;html=1;exitX=1;exitY=0.5;exitDx=0;exitDy=0;entryX=0;entryY=0.5;entryDx=0;entryDy=0;" edge="1" parent="1" source="FQV0Odccfyke2C4MqBwn-10" target="FQV0Odccfyke2C4MqBwn-30">
          <mxGeometry relative="1" as="geometry" />
        </mxCell>
        <mxCell id="FQV0Odccfyke2C4MqBwn-42" style="edgeStyle=orthogonalEdgeStyle;rounded=0;orthogonalLoop=1;jettySize=auto;html=1;exitX=1;exitY=0.5;exitDx=0;exitDy=0;entryX=0;entryY=0.5;entryDx=0;entryDy=0;" edge="1" parent="1" source="FQV0Odccfyke2C4MqBwn-10" target="FQV0Odccfyke2C4MqBwn-26">
          <mxGeometry relative="1" as="geometry" />
        </mxCell>
        <mxCell id="FQV0Odccfyke2C4MqBwn-10" value="myPage04" style="swimlane;whiteSpace=wrap;html=1;" vertex="1" parent="1">
          <mxGeometry x="230" y="470" width="120" height="120" as="geometry" />
        </mxCell>
        <mxCell id="FQV0Odccfyke2C4MqBwn-11" value="내가 쓴 글" style="text;html=1;align=center;verticalAlign=middle;resizable=0;points=[];autosize=1;strokeColor=none;fillColor=none;rotation=0;" vertex="1" parent="FQV0Odccfyke2C4MqBwn-10">
          <mxGeometry x="20" y="58" width="80" height="30" as="geometry" />
        </mxCell>
        <mxCell id="FQV0Odccfyke2C4MqBwn-35" style="edgeStyle=orthogonalEdgeStyle;rounded=0;orthogonalLoop=1;jettySize=auto;html=1;exitX=1;exitY=0.25;exitDx=0;exitDy=0;entryX=0;entryY=0.5;entryDx=0;entryDy=0;" edge="1" parent="1" source="FQV0Odccfyke2C4MqBwn-12" target="FQV0Odccfyke2C4MqBwn-30">
          <mxGeometry relative="1" as="geometry" />
        </mxCell>
        <mxCell id="FQV0Odccfyke2C4MqBwn-43" style="edgeStyle=orthogonalEdgeStyle;rounded=0;orthogonalLoop=1;jettySize=auto;html=1;exitX=1;exitY=0.75;exitDx=0;exitDy=0;entryX=0;entryY=0.5;entryDx=0;entryDy=0;" edge="1" parent="1" source="FQV0Odccfyke2C4MqBwn-12" target="FQV0Odccfyke2C4MqBwn-28">
          <mxGeometry relative="1" as="geometry" />
        </mxCell>
        <mxCell id="FQV0Odccfyke2C4MqBwn-66" style="edgeStyle=orthogonalEdgeStyle;rounded=0;orthogonalLoop=1;jettySize=auto;html=1;exitX=0.5;exitY=1;exitDx=0;exitDy=0;entryX=0;entryY=0.5;entryDx=0;entryDy=0;" edge="1" parent="1" source="FQV0Odccfyke2C4MqBwn-12" target="FQV0Odccfyke2C4MqBwn-63">
          <mxGeometry relative="1" as="geometry" />
        </mxCell>
        <mxCell id="FQV0Odccfyke2C4MqBwn-70" style="edgeStyle=orthogonalEdgeStyle;rounded=0;orthogonalLoop=1;jettySize=auto;html=1;exitX=0.5;exitY=1;exitDx=0;exitDy=0;entryX=0;entryY=0.5;entryDx=0;entryDy=0;" edge="1" parent="1" source="FQV0Odccfyke2C4MqBwn-12" target="FQV0Odccfyke2C4MqBwn-64">
          <mxGeometry relative="1" as="geometry" />
        </mxCell>
        <mxCell id="FQV0Odccfyke2C4MqBwn-84" style="edgeStyle=orthogonalEdgeStyle;rounded=0;orthogonalLoop=1;jettySize=auto;html=1;exitX=0.25;exitY=1;exitDx=0;exitDy=0;entryX=1;entryY=0.5;entryDx=0;entryDy=0;" edge="1" parent="1" source="FQV0Odccfyke2C4MqBwn-12" target="FQV0Odccfyke2C4MqBwn-83">
          <mxGeometry relative="1" as="geometry" />
        </mxCell>
        <mxCell id="FQV0Odccfyke2C4MqBwn-12" value="myPage05" style="swimlane;whiteSpace=wrap;html=1;" vertex="1" parent="1">
          <mxGeometry x="230" y="620" width="120" height="120" as="geometry" />
        </mxCell>
        <mxCell id="FQV0Odccfyke2C4MqBwn-13" value="장바구니/관심목록" style="text;html=1;align=center;verticalAlign=middle;resizable=0;points=[];autosize=1;strokeColor=none;fillColor=none;rotation=0;" vertex="1" parent="FQV0Odccfyke2C4MqBwn-12">
          <mxGeometry y="58" width="120" height="30" as="geometry" />
        </mxCell>
        <mxCell id="FQV0Odccfyke2C4MqBwn-19" style="edgeStyle=orthogonalEdgeStyle;rounded=0;orthogonalLoop=1;jettySize=auto;html=1;exitX=1;exitY=0.5;exitDx=0;exitDy=0;entryX=-0.008;entryY=0.1;entryDx=0;entryDy=0;entryPerimeter=0;" edge="1" parent="1" source="FQV0Odccfyke2C4MqBwn-1" target="FQV0Odccfyke2C4MqBwn-13">
          <mxGeometry relative="1" as="geometry" />
        </mxCell>
        <mxCell id="FQV0Odccfyke2C4MqBwn-21" value="" style="edgeStyle=orthogonalEdgeStyle;rounded=0;orthogonalLoop=1;jettySize=auto;html=1;exitX=1;exitY=0.5;exitDx=0;exitDy=0;entryX=0;entryY=0.5;entryDx=0;entryDy=0;" edge="1" parent="1" source="FQV0Odccfyke2C4MqBwn-1" target="FQV0Odccfyke2C4MqBwn-20">
          <mxGeometry relative="1" as="geometry">
            <mxPoint x="130" y="380" as="sourcePoint" />
            <mxPoint x="230" y="380" as="targetPoint" />
          </mxGeometry>
        </mxCell>
        <mxCell id="FQV0Odccfyke2C4MqBwn-20" value="로그인" style="ellipse;whiteSpace=wrap;html=1;aspect=fixed;" vertex="1" parent="1">
          <mxGeometry x="150" y="355" width="50" height="50" as="geometry" />
        </mxCell>
        <mxCell id="FQV0Odccfyke2C4MqBwn-48" style="edgeStyle=orthogonalEdgeStyle;rounded=0;orthogonalLoop=1;jettySize=auto;html=1;exitX=1;exitY=0.5;exitDx=0;exitDy=0;" edge="1" parent="1" source="FQV0Odccfyke2C4MqBwn-24" target="FQV0Odccfyke2C4MqBwn-46">
          <mxGeometry relative="1" as="geometry" />
        </mxCell>
        <mxCell id="FQV0Odccfyke2C4MqBwn-24" value="배송지변경" style="ellipse;whiteSpace=wrap;html=1;aspect=fixed;" vertex="1" parent="1">
          <mxGeometry x="420" y="270" width="50" height="50" as="geometry" />
        </mxCell>
        <mxCell id="FQV0Odccfyke2C4MqBwn-25" value="회원정보수정" style="ellipse;whiteSpace=wrap;html=1;aspect=fixed;" vertex="1" parent="1">
          <mxGeometry x="420" y="450" width="50" height="50" as="geometry" />
        </mxCell>
        <mxCell id="FQV0Odccfyke2C4MqBwn-26" value="내가쓴글 확인" style="ellipse;whiteSpace=wrap;html=1;aspect=fixed;" vertex="1" parent="1">
          <mxGeometry x="420" y="535" width="50" height="50" as="geometry" />
        </mxCell>
        <mxCell id="FQV0Odccfyke2C4MqBwn-50" style="edgeStyle=orthogonalEdgeStyle;rounded=0;orthogonalLoop=1;jettySize=auto;html=1;exitX=1;exitY=0.5;exitDx=0;exitDy=0;" edge="1" parent="1" source="FQV0Odccfyke2C4MqBwn-27" target="FQV0Odccfyke2C4MqBwn-46">
          <mxGeometry relative="1" as="geometry" />
        </mxCell>
        <mxCell id="FQV0Odccfyke2C4MqBwn-27" value="구매이력확인" style="ellipse;whiteSpace=wrap;html=1;aspect=fixed;" vertex="1" parent="1">
          <mxGeometry x="420" y="45" width="50" height="50" as="geometry" />
        </mxCell>
        <mxCell id="FQV0Odccfyke2C4MqBwn-28" value="장바구니/관심목록 확인" style="ellipse;whiteSpace=wrap;html=1;aspect=fixed;" vertex="1" parent="1">
          <mxGeometry x="405" y="640" width="80" height="80" as="geometry" />
        </mxCell>
        <mxCell id="FQV0Odccfyke2C4MqBwn-49" style="edgeStyle=orthogonalEdgeStyle;rounded=0;orthogonalLoop=1;jettySize=auto;html=1;exitX=1;exitY=0.5;exitDx=0;exitDy=0;" edge="1" parent="1" source="FQV0Odccfyke2C4MqBwn-29" target="FQV0Odccfyke2C4MqBwn-46">
          <mxGeometry relative="1" as="geometry" />
        </mxCell>
        <mxCell id="FQV0Odccfyke2C4MqBwn-29" value="취소/반품내역 확인" style="ellipse;whiteSpace=wrap;html=1;aspect=fixed;" vertex="1" parent="1">
          <mxGeometry x="420" y="170" width="50" height="50" as="geometry" />
        </mxCell>
        <mxCell id="FQV0Odccfyke2C4MqBwn-30" value="포인트정 표시/관리" style="ellipse;whiteSpace=wrap;html=1;aspect=fixed;" vertex="1" parent="1">
          <mxGeometry x="405" y="340" width="80" height="80" as="geometry" />
        </mxCell>
        <mxCell id="FQV0Odccfyke2C4MqBwn-46" value="DB" style="shape=cylinder3;whiteSpace=wrap;html=1;boundedLbl=1;backgroundOutline=1;size=15;" vertex="1" parent="1">
          <mxGeometry x="610" y="350" width="130" height="80" as="geometry" />
        </mxCell>
        <mxCell id="FQV0Odccfyke2C4MqBwn-47" style="edgeStyle=orthogonalEdgeStyle;rounded=0;orthogonalLoop=1;jettySize=auto;html=1;exitX=1;exitY=0.5;exitDx=0;exitDy=0;entryX=0;entryY=0.5;entryDx=0;entryDy=0;entryPerimeter=0;" edge="1" parent="1" source="FQV0Odccfyke2C4MqBwn-30" target="FQV0Odccfyke2C4MqBwn-46">
          <mxGeometry relative="1" as="geometry" />
        </mxCell>
        <mxCell id="FQV0Odccfyke2C4MqBwn-51" style="edgeStyle=orthogonalEdgeStyle;rounded=0;orthogonalLoop=1;jettySize=auto;html=1;exitX=1;exitY=0.5;exitDx=0;exitDy=0;entryX=0.5;entryY=1;entryDx=0;entryDy=0;entryPerimeter=0;" edge="1" parent="1" source="FQV0Odccfyke2C4MqBwn-25" target="FQV0Odccfyke2C4MqBwn-46">
          <mxGeometry relative="1" as="geometry" />
        </mxCell>
        <mxCell id="FQV0Odccfyke2C4MqBwn-52" style="edgeStyle=orthogonalEdgeStyle;rounded=0;orthogonalLoop=1;jettySize=auto;html=1;exitX=1;exitY=0.5;exitDx=0;exitDy=0;entryX=0.5;entryY=1;entryDx=0;entryDy=0;entryPerimeter=0;" edge="1" parent="1" source="FQV0Odccfyke2C4MqBwn-26" target="FQV0Odccfyke2C4MqBwn-46">
          <mxGeometry relative="1" as="geometry" />
        </mxCell>
        <mxCell id="FQV0Odccfyke2C4MqBwn-53" style="edgeStyle=orthogonalEdgeStyle;rounded=0;orthogonalLoop=1;jettySize=auto;html=1;exitX=1;exitY=0.5;exitDx=0;exitDy=0;entryX=0.5;entryY=1;entryDx=0;entryDy=0;entryPerimeter=0;" edge="1" parent="1" source="FQV0Odccfyke2C4MqBwn-28" target="FQV0Odccfyke2C4MqBwn-46">
          <mxGeometry relative="1" as="geometry" />
        </mxCell>
        <mxCell id="FQV0Odccfyke2C4MqBwn-79" style="edgeStyle=orthogonalEdgeStyle;rounded=0;orthogonalLoop=1;jettySize=auto;html=1;exitX=1;exitY=0.5;exitDx=0;exitDy=0;entryX=0;entryY=0.5;entryDx=0;entryDy=0;" edge="1" parent="1" source="FQV0Odccfyke2C4MqBwn-63" target="FQV0Odccfyke2C4MqBwn-76">
          <mxGeometry relative="1" as="geometry" />
        </mxCell>
        <mxCell id="FQV0Odccfyke2C4MqBwn-63" value="즉시구매" style="ellipse;whiteSpace=wrap;html=1;aspect=fixed;" vertex="1" parent="1">
          <mxGeometry x="370" y="820" width="50" height="50" as="geometry" />
        </mxCell>
        <mxCell id="FQV0Odccfyke2C4MqBwn-78" style="edgeStyle=orthogonalEdgeStyle;rounded=0;orthogonalLoop=1;jettySize=auto;html=1;exitX=1;exitY=0.5;exitDx=0;exitDy=0;entryX=0;entryY=0.5;entryDx=0;entryDy=0;" edge="1" parent="1" source="FQV0Odccfyke2C4MqBwn-64" target="FQV0Odccfyke2C4MqBwn-76">
          <mxGeometry relative="1" as="geometry" />
        </mxCell>
        <mxCell id="FQV0Odccfyke2C4MqBwn-64" value="일괄구매" style="ellipse;whiteSpace=wrap;html=1;aspect=fixed;" vertex="1" parent="1">
          <mxGeometry x="370" y="740" width="50" height="50" as="geometry" />
        </mxCell>
        <mxCell id="FQV0Odccfyke2C4MqBwn-76" value="buy01" style="swimlane;whiteSpace=wrap;html=1;" vertex="1" parent="1">
          <mxGeometry x="530" y="740" width="120" height="120" as="geometry" />
        </mxCell>
        <mxCell id="FQV0Odccfyke2C4MqBwn-77" value="&amp;nbsp;상품구매페이지" style="text;html=1;align=center;verticalAlign=middle;resizable=0;points=[];autosize=1;strokeColor=none;fillColor=none;rotation=0;" vertex="1" parent="FQV0Odccfyke2C4MqBwn-76">
          <mxGeometry x="5" y="58" width="110" height="30" as="geometry" />
        </mxCell>
        <mxCell id="FQV0Odccfyke2C4MqBwn-80" value="&lt;span style=&quot;font-size: 14px;&quot;&gt;shop02&lt;/span&gt;" style="swimlane;whiteSpace=wrap;html=1;startSize=30;" vertex="1" parent="1">
          <mxGeometry x="10" y="740" width="120" height="120" as="geometry">
            <mxRectangle x="310" y="120" width="140" height="30" as="alternateBounds" />
          </mxGeometry>
        </mxCell>
        <mxCell id="FQV0Odccfyke2C4MqBwn-81" value="&lt;span style=&quot;font-size: 15px;&quot;&gt;상품&amp;nbsp;&lt;/span&gt;&lt;div&gt;&lt;span style=&quot;font-size: 15px;&quot;&gt;상세 설명 화면&lt;/span&gt;&lt;/div&gt;" style="text;html=1;align=center;verticalAlign=middle;resizable=0;points=[];autosize=1;strokeColor=none;fillColor=none;" vertex="1" parent="FQV0Odccfyke2C4MqBwn-80">
          <mxGeometry y="50" width="120" height="50" as="geometry" />
        </mxCell>
        <mxCell id="FQV0Odccfyke2C4MqBwn-86" style="edgeStyle=orthogonalEdgeStyle;rounded=0;orthogonalLoop=1;jettySize=auto;html=1;exitX=0;exitY=0.5;exitDx=0;exitDy=0;" edge="1" parent="1" source="FQV0Odccfyke2C4MqBwn-83" target="FQV0Odccfyke2C4MqBwn-81">
          <mxGeometry relative="1" as="geometry" />
        </mxCell>
        <mxCell id="FQV0Odccfyke2C4MqBwn-83" value="상세보기" style="ellipse;whiteSpace=wrap;html=1;aspect=fixed;" vertex="1" parent="1">
          <mxGeometry x="170" y="790" width="50" height="50" as="geometry" />
        </mxCell>
        <mxCell id="FQV0Odccfyke2C4MqBwn-87" style="edgeStyle=orthogonalEdgeStyle;rounded=0;orthogonalLoop=1;jettySize=auto;html=1;exitX=1;exitY=0.5;exitDx=0;exitDy=0;entryX=0.5;entryY=1;entryDx=0;entryDy=0;entryPerimeter=0;" edge="1" parent="1" source="FQV0Odccfyke2C4MqBwn-76" target="FQV0Odccfyke2C4MqBwn-46">
          <mxGeometry relative="1" as="geometry" />
        </mxCell>
        <mxCell id="FQV0Odccfyke2C4MqBwn-88" style="edgeStyle=orthogonalEdgeStyle;rounded=0;orthogonalLoop=1;jettySize=auto;html=1;exitX=0.5;exitY=1;exitDx=0;exitDy=0;entryX=0.5;entryY=1;entryDx=0;entryDy=0;entryPerimeter=0;" edge="1" parent="1" source="FQV0Odccfyke2C4MqBwn-80" target="FQV0Odccfyke2C4MqBwn-46">
          <mxGeometry relative="1" as="geometry" />
        </mxCell>
      </root>
    </mxGraphModel>
  </diagram>
</mxfile>
